<svg data-v-0dd9719b="" version="1.0" xmlns="http://www.w3.org/2000/svg" xmlns:xlink="http://www.w3.org/1999/xlink" width="100%" height="100%" viewBox="0 0 340.000000 250.000000" preserveAspectRatio="xMidYMid meet" color-interpolation-filters="sRGB" style="margin: auto;"> <rect data-v-0dd9719b="" x="0" y="0" width="100%" height="100%" fill="#fff" fill-opacity="1" class="background"></rect> <rect data-v-0dd9719b="" x="0" y="0" width="100%" height="100%" fill="url(#watermark)" fill-opacity="1" class="watermarklayer"></rect> <g data-v-0dd9719b="" fill="#25bcbd" class="icon-text-wrapper icon-svg-group iconsvg" transform="translate(65.73500061035156,94.87861061096191)"><g class="iconsvg-imagesvg" transform="translate(0,0)"><g><rect fill="#25bcbd" fill-opacity="0" stroke-width="2" x="0" y="0" width="60" height="60.24277839693966" class="image-rect"></rect> <svg x="0" y="0" width="60" height="60.24277839693966" filtersec="colorsb1547961744" class="image-svg-svg primary" style="overflow: visible;"><svg xmlns="http://www.w3.org/2000/svg" viewBox="0 8.699999809265137 618.0999755859375 620.5999755859375"><path d="M136.5 183.6H149c1.7 0 3-1.4 3-3v-12.5c0-1.7-1.4-3-3-3h-12.5c-1.7 0-3 1.4-3 3v12.5c-.1 1.7 1.3 3 3 3zM112.9 280.3v14.8c0 2 1.6 3.6 3.6 3.6h14.8c2 0 3.6-1.6 3.6-3.6v-14.8c0-2-1.6-3.6-3.6-3.6h-14.8c-2 0-3.6 1.6-3.6 3.6zM36.1 305.8v-24.3c0-3.2-2.6-5.9-5.9-5.9H5.9c-3.2 0-5.9 2.6-5.9 5.9v24.3c0 3.2 2.6 5.9 5.9 5.9h24.3c3.2 0 5.9-2.7 5.9-5.9zM42.6 260.9h58.5c7.8 0 14.2-6.4 14.2-14.2v-58.5c0-7.8-6.4-14.2-14.2-14.2H42.6c-7.8 0-14.2 6.4-14.2 14.2v58.5c0 7.8 6.4 14.2 14.2 14.2zM154.2 148.9h65.5c8.7 0 15.9-7.1 15.9-15.9V67.6c0-8.7-7.1-15.9-15.9-15.9h-65.5c-8.7 0-15.9 7.1-15.9 15.9v65.5c.1 8.7 7.2 15.8 15.9 15.8zM478.5 160h83.7c4.9 0 9.5.9 13.8 2.6-13.5-23.1-29.9-44.3-48.7-63.1C471.2 43.4 393.6 8.7 307.9 8.7V123.8c53.5 0 102 21.5 137.2 56.4 6.4-12 19-20.2 33.4-20.2zM261.7 118.2c-2.3 0-4.1 1.8-4.1 4.1v16.9c0 2.3 1.8 4.1 4.1 4.1h16.9c2.3 0 4.1-1.8 4.1-4.1v-16.9c0-2.3-1.8-4.1-4.1-4.1h-16.9zM77.5 153h26.1c3.5 0 6.3-2.8 6.3-6.3v-26.1c0-3.5-2.8-6.3-6.3-6.3H77.5c-3.5 0-6.3 2.8-6.3 6.3v26.1c0 3.4 2.9 6.3 6.3 6.3zM282.1 530.8h-13.2c-1.8 0-3.2 1.4-3.2 3.2v13.2c0 1.8 1.4 3.2 3.2 3.2h13.2c1.8 0 3.2-1.4 3.2-3.2V534c0-1.8-1.5-3.2-3.2-3.2zM599.8 281.4c0 20.7-16.9 37.7-37.7 37.7H503c0 107.8-87.4 195.1-195.2 195.1V629.3c85.7 0 163.3-34.7 219.4-90.9 56.1-56.1 90.9-133.7 90.9-219.4 0-37-6.5-72.5-18.4-105.4v67.8zM112.1 473.8H78.8c-4.4 0-8.1 3.6-8.1 8.1v33.3c0 4.4 3.6 8.1 8.1 8.1h33.3c4.4 0 8.1-3.6 8.1-8.1v-33.3c-.1-4.5-3.7-8.1-8.1-8.1zM282 460.2v-24.3c0-3.2-2.6-5.9-5.9-5.9h-24.3c-3.2 0-5.9 2.6-5.9 5.9v24.3c0 3.2 2.6 5.9 5.9 5.9h24.3c3.3 0 5.9-2.7 5.9-5.9zM230 493.4h-65.4c-8.7 0-15.9 7.1-15.9 15.9v65.4c0 8.7 7.1 15.9 15.9 15.9H230c8.7 0 15.9-7.1 15.9-15.9v-65.4c-.1-8.7-7.2-15.9-15.9-15.9zM253.2 390v-48.6c0-6.5-5.3-11.8-11.8-11.8h-48.6c-6.5 0-11.8 5.3-11.8 11.8V390c0 6.5 5.3 11.8 11.8 11.8h48.6c6.5 0 11.8-5.3 11.8-11.8z" fill="#25bcbd"></path><linearGradient id="a23ca9a45-1be7-40b5-9436-d6ce29d47b8b" gradientUnits="userSpaceOnUse" x1="20.209" y1="314.098" x2="582.468" y2="314.098"><stop offset="0" stop-color="#25bcbd"></stop><stop offset="1" stop-color="#c2d72e"></stop></linearGradient><path d="M179.9 300.5c2.1.7 4.3 1.1 6.6 1.1h83.7c2.3 0 4.6-.4 6.6-1.1l37.4 37.4c-1.3 2.7-2 5.7-2 8.8v83.7c0 11.2 9.1 20.3 20.3 20.3h83.7c11.2 0 20.3-9.1 20.3-20.3v-83.7c0-3.2-.7-6.2-2-8.8l37.4-37.4c2.1.7 4.3 1.1 6.6 1.1h83.7c11.2 0 20.3-9.1 20.3-20.3v-83.7c0-11.2-9.1-20.3-20.3-20.3h-83.7c-11.2 0-20.3 9.1-20.3 20.3v83.7c0 2.8.6 5.5 1.6 7.9l-38.1 38.1c-1.8-.5-3.6-.8-5.6-.8h-83.7c-1.9 0-3.8.3-5.6.8l-38.1-38.1c1-2.4 1.6-5.1 1.6-7.9v-83.7c0-11.2-9.1-20.3-20.3-20.3h-83.7c-11.2 0-20.3 9.1-20.3 20.3v83.7c0 2.8.6 5.5 1.6 7.9l-38.1 38.1c-1.8-.5-3.6-.8-5.6-.8H40.5c-11.2 0-20.3 9.1-20.3 20.3v83.7c0 11.2 9.1 20.3 20.3 20.3h83.7c11.2 0 20.3-9.1 20.3-20.3v-83.7c0-3.2-.7-6.2-2-8.8l37.4-37.5z" fill="url(#a23ca9a45-1be7-40b5-9436-d6ce29d47b8b)"></path><path d="M189.8 434.5c-1.6 0-2.9 1.3-2.9 2.9v12.1c0 1.6 1.3 2.9 2.9 2.9H202c1.6 0 2.9-1.3 2.9-2.9v-12.1c0-1.6-1.3-2.9-2.9-2.9h-12.2z" fill="#25bcbd"></path></svg></svg> <!----></g></g> <g transform="translate(67,4.22014045715332)"><g data-gra="path-name" fill-rule="" class="tp-name iconsvg-namesvg" transform="translate(0,0)"><g transform="scale(1)"><g><path d="M32.8-26.19Q33.3-26.19 33.62-25.88 33.93-25.56 33.93-25.06L33.93-25.06Q33.93-24.61 33.59-24.3 33.25-23.98 32.8-23.98L32.8-23.98 7.79-23.98 7.79-14.89Q7.79-10.84 7.38-7.45 6.97-4.05 5.56-0.7 4.14 2.65 1.4 5.22L1.4 5.22 0.9 4.81Q3.28 0.99 4-3.73 4.72-8.46 4.72-14.89L4.72-14.89 4.72-26.1Q4.86-26.19 5.4-26.39 5.94-26.59 6.48-26.59L6.48-26.59Q7.79-26.59 7.79-25.11L7.79-25.11 19.3-25.11Q18.45-27.04 17.59-28.39 16.74-29.74 15.57-31.27L15.57-31.27 15.88-31.63Q18.95-30.46 20.29-29.32 21.64-28.17 21.64-27.13L21.64-27.13Q21.64-26.05 20.29-25.11L20.29-25.11 29.74-25.11Q30.55-25.11 31-25.29 31.45-25.47 31.86-25.79L31.86-25.79Q32.09-25.96 32.31-26.08 32.53-26.19 32.8-26.19L32.8-26.19ZM37.94 5.08L37.58 4.59Q41.4 1.13 42.88-3.82 44.37-8.78 44.37-15.34L44.37-15.34 44.37-29.97Q44.5-30.06 45.05-30.26 45.59-30.46 46.08-30.46L46.08-30.46Q47.12-30.46 47.12-29.38L47.12-29.38 47.12-15.34Q47.02-8.32 45.05-3.22 43.06 1.89 37.94 5.08L37.94 5.08ZM64.35 4.91L64.35-29.97Q64.48-30.02 64.98-30.15 65.47-30.29 65.97-30.29L65.97-30.29Q67.23-30.29 67.23-29.16L67.23-29.16 67.23 4.27Q67.23 5.13 65.92 5.13L65.92 5.13Q65.43 5.13 64.96 5.04 64.48 4.95 64.35 4.91L64.35 4.91ZM54.09 4.27L54.09-29.38Q54.22-29.43 54.67-29.56 55.13-29.7 55.58-29.7L55.58-29.7Q56.84-29.7 56.84-28.53L56.84-28.53 56.84 3.69Q56.84 4.54 55.62 4.54L55.62 4.54Q55.17 4.54 54.7 4.43 54.22 4.32 54.09 4.27L54.09 4.27ZM37.22-10.98Q38.92-12.73 40.01-15.57 41.09-18.4 41.09-21.51L41.09-21.51 41.67-21.55Q42.75-18.36 42.75-15.88L42.75-15.88Q42.75-13.28 41.69-11.88 40.63-10.48 39.06-10.48L39.06-10.48Q38.07-10.48 37.22-10.98L37.22-10.98ZM60.93-9.95Q60.88-12.2 59.8-15.16 58.72-18.13 57.42-19.98L57.42-19.98 57.78-20.25Q63.31-17.23 63.31-13.99L63.31-13.99Q63.31-11.83 60.93-9.95L60.93-9.95ZM50.27-9.95Q50.4-12.46 49.7-15.19 49-17.91 47.97-19.89L47.97-19.89 48.38-20.11Q52.97-16.56 52.97-13.54L52.97-13.54Q52.97-12.29 52.16-11.34 51.34-10.39 50.27-9.95L50.27-9.95ZM91.71-5.17Q94.68-2.7 98.55-0.85 102.42 0.99 106.69 2.11L106.69 2.11Q105.75 2.07 105.21 2.41 104.67 2.75 104.09 3.46L104.09 3.46Q103.59 4.05 103.23 4.32 102.87 4.59 102.28 4.59L102.28 4.59Q101.66 4.59 100.71 4.18L100.71 4.18Q94.28 1.57 89.69-3.15L89.69-3.15Q83.34 2.52 73.35 5.13L73.35 5.13 73.08 4.54Q82.31 1.13 88.02-4.95L88.02-4.95Q82.8-11.43 80.73-21.6L80.73-21.6 74.03-21.6Q73.8-21.6 73.64-21.78 73.48-21.96 73.48-22.18L73.48-22.18Q73.48-22.41 73.64-22.59 73.8-22.77 74.03-22.77L74.03-22.77 90.41-22.77Q90.09-24.84 88.67-27.29 87.25-29.74 85.68-31.14L85.68-31.14 86.49-31.5Q92.75-28.84 92.75-25.88L92.75-25.88Q92.75-24.25 91.03-22.77L91.03-22.77 101.66-22.77Q102.51-22.77 102.96-22.95 103.41-23.13 103.81-23.45L103.81-23.45Q104.04-23.63 104.27-23.74 104.49-23.85 104.76-23.85L104.76-23.85Q105.21-23.85 105.53-23.51 105.84-23.18 105.84-22.72L105.84-22.72Q105.84-22.27 105.53-21.94 105.21-21.6 104.76-21.6L104.76-21.6 99.81-21.6Q97.42-11.43 91.71-5.17L91.71-5.17ZM89.69-6.93Q94.59-13.09 96.21-21.6L96.21-21.6 81.5-21.6Q83.75-12.78 89.69-6.93L89.69-6.93ZM122.31-14.94Q119.7-13.28 117.22-11.83L117.22-11.83 117.05-11.74 117.05 1.75Q117.05 3.24 116.59 4.18 116.14 5.13 115.16 5.13L115.16 5.13Q114.66 5.13 114.39 4.88 114.12 4.63 113.89 4.09L113.89 4.09Q113.4 3.15 112.61 2.59 111.83 2.02 109.89 2.02L109.89 2.02 109.89 1.21 113.4 1.21Q113.94 1.21 114.1 1.06 114.25 0.9 114.25 0.45L114.25 0.45 114.25-10.08 111.73-8.69Q110.88-8.28 110.43-8.32L110.43-8.32Q109.31-8.32 109.08-9.25 108.86-10.17 108.86-11.12L108.86-11.12Q111.02-11.7 114.25-12.78L114.25-12.78 114.25-21.24 109.75-21.24Q109.53-21.24 109.35-21.42 109.17-21.6 109.17-21.82L109.17-21.82Q109.17-22.05 109.35-22.23 109.53-22.41 109.75-22.41L109.75-22.41 114.25-22.41 114.25-31.18Q114.39-31.27 114.93-31.43 115.47-31.59 115.97-31.59L115.97-31.59Q117.05-31.59 117.05-30.55L117.05-30.55 117.05-22.41 118.03-22.41Q118.84-22.41 119.3-22.59 119.75-22.77 120.15-23.09L120.15-23.09Q120.38-23.27 120.6-23.38 120.83-23.49 121.09-23.49L121.09-23.49Q121.55-23.49 121.88-23.15 122.22-22.81 122.22-22.36L122.22-22.36Q122.22-21.91 121.91-21.58 121.59-21.24 121.09-21.24L121.09-21.24 117.05-21.24 117.05-13.72Q120.06-14.71 122.04-15.48L122.04-15.48 122.31-14.94ZM141.3-28.71Q141.8-28.71 142.11-28.39 142.43-28.08 142.43-27.58L142.43-27.58Q142.43-27.13 142.09-26.8 141.75-26.46 141.3-26.46L141.3-26.46 131.35-26.46Q129.91-20.25 127.44-15.25L127.44-15.25Q127.62-15.07 127.62-14.58L127.62-14.58 127.62-14.54 137.2-14.54 137.2-15.39Q137.34-15.43 137.81-15.57 138.28-15.71 138.78-15.71L138.78-15.71Q140.04-15.71 140.04-14.58L140.04-14.58 140.04 3.65Q140.04 4.5 138.82 4.5L138.82 4.5Q138.33 4.5 137.84 4.39 137.34 4.27 137.2 4.23L137.2 4.23 137.2 1.44 127.62 1.44 127.62 3.65Q127.62 4.5 126.41 4.5L126.41 4.5Q125.91 4.5 125.44 4.39 124.97 4.27 124.83 4.23L124.83 4.23 124.83-10.62Q121.64-5.76 118.03-2.75L118.03-2.75 117.63-3.24Q121.5-7.79 124.2-13.99 126.9-20.2 127.84-26.5L127.84-26.5 120.56-26.5Q120.33-26.5 120.15-26.66 119.97-26.82 119.97-27.04L119.97-27.04Q119.97-27.27 120.15-27.45 120.33-27.63 120.56-27.63L120.56-27.63 138.24-27.63Q139.05-27.63 139.5-27.81 139.95-27.99 140.4-28.35L140.4-28.35Q140.49-28.39 140.74-28.55 140.99-28.71 141.3-28.71L141.3-28.71ZM137.2 0.22L137.2-13.32 127.62-13.32 127.62 0.22 137.2 0.22Z" transform="translate(-0.9000000357627869, 31.6299991607666)"></path></g> <!----> <!----> <!----> <!----> <!----> <!----> <!----></g></g> <g data-gra="path-slogan" fill-rule="" class="tp-slogan iconsvg-slogansvg" fill="#25bcbd" transform="translate(4.199440002441406,42.849998474121094)"><!----> <!----> <g transform="scale(1, 1)"><g transform="scale(1)"><path d="M7.31-3.61L4.69-3.61L4.69-4.59L8.44-4.59L8.44 0L7.69 0L7.41-1.08Q6.42 0.09 4.59 0.14L4.59 0.14Q2.86 0.14 1.92-0.75L1.92-0.75Q0.52-2.06 0.56-4.36L0.56-4.36Q0.89-8.63 4.64-8.81L4.64-8.81Q7.83-8.63 8.30-6L8.30-6L7.17-6Q6.70-7.78 4.59-7.83L4.59-7.83Q1.92-7.64 1.78-4.31L1.78-4.31Q1.78-0.75 4.64-0.75L4.64-0.75Q5.67-0.75 6.42-1.31L6.42-1.31Q7.36-2.06 7.31-3.61L7.31-3.61ZM15.89-3.19L15.89-8.58L17.06-8.58L17.06-3.05Q16.92 0.05 13.55 0.14L13.55 0.14Q10.41 0.05 10.27-2.86L10.27-2.86L10.27-8.58L11.44-8.58L11.44-3.19Q11.48-0.84 13.59-0.80L13.59-0.80Q15.89-0.84 15.89-3.19L15.89-3.19ZM24.52 0L23.67-2.48L20.20-2.48L19.31 0L18.14 0L21.38-8.58L22.69-8.58L25.78 0L24.52 0ZM21.94-7.31L20.58-3.52L23.25-3.52L21.98-7.31L21.94-7.31ZM28.22-8.58L32.53-1.64L32.53-8.58L33.66-8.58L33.66 0L32.34 0L27.98-6.94L27.94-6.94L27.94 0L26.81 0L26.81-8.58L28.22-8.58ZM41.86-3.61L39.23-3.61L39.23-4.59L42.98-4.59L42.98 0L42.23 0L41.95-1.08Q40.97 0.09 39.14 0.14L39.14 0.14Q37.41 0.14 36.47-0.75L36.47-0.75Q35.06-2.06 35.11-4.36L35.11-4.36Q35.44-8.63 39.19-8.81L39.19-8.81Q42.38-8.63 42.84-6L42.84-6L41.72-6Q41.25-7.78 39.14-7.83L39.14-7.83Q36.47-7.64 36.33-4.31L36.33-4.31Q36.33-0.75 39.19-0.75L39.19-0.75Q40.22-0.75 40.97-1.31L40.97-1.31Q41.91-2.06 41.86-3.61L41.86-3.61ZM45.61-1.03L50.91-1.03L50.91 0L44.16 0L44.16-0.94L49.41-7.59L44.53-7.59L44.53-8.58L50.91-8.58L50.91-7.59L45.61-1.03ZM53.20-5.06L57.70-5.06L57.70-8.58L58.88-8.58L58.88 0L57.70 0L57.70-3.98L53.20-3.98L53.20 0L52.03 0L52.03-8.58L53.20-8.58L53.20-5.06ZM67.45-4.27L67.45-4.27Q67.27-7.64 64.45-7.83L64.45-7.83Q61.59-7.69 61.45-4.27L61.45-4.27Q61.59-0.94 64.45-0.80L64.45-0.80Q67.27-0.98 67.45-4.27ZM68.63-4.27L68.63-4.27Q68.34 0 64.45 0.14L64.45 0.14Q60.52 0 60.23-4.27L60.23-4.27Q60.47-8.72 64.45-8.81L64.45-8.81Q68.34-8.67 68.63-4.27ZM75.66-3.19L75.66-8.58L76.83-8.58L76.83-3.05Q76.69 0.05 73.31 0.14L73.31 0.14Q70.17 0.05 70.03-2.86L70.03-2.86L70.03-8.58L71.20-8.58L71.20-3.19Q71.25-0.84 73.36-0.80L73.36-0.80Q75.66-0.84 75.66-3.19L75.66-3.19ZM86.72-7.13L86.67-7.13L84.70 0L83.48 0L81.23-8.58L82.45-8.58L84.09-1.59L84.14-1.59L86.06-8.58L87.33-8.58L89.25-1.59L89.30-1.59L90.89-8.58L92.16-8.58L89.91 0L88.69 0L86.72-7.13ZM94.55-1.03L99.70-1.03L99.70 0L93.38 0L93.38-8.58L99.61-8.58L99.61-7.59L94.55-7.59L94.55-4.92L99.23-4.92L99.23-3.89L94.55-3.89L94.55-1.03ZM102.61-8.58L106.92-1.64L106.92-8.58L108.05-8.58L108.05 0L106.73 0L102.38-6.94L102.33-6.94L102.33 0L101.20 0L101.20-8.58L102.61-8.58ZM112.03-7.59L109.13-7.59L109.13-8.58L116.06-8.58L116.06-7.59L113.16-7.59L113.16 0L112.03 0L112.03-7.59ZM122.77-3.19L122.77-8.58L123.94-8.58L123.94-3.05Q123.80 0.05 120.42 0.14L120.42 0.14Q117.28 0.05 117.14-2.86L117.14-2.86L117.14-8.58L118.31-8.58L118.31-3.19Q118.36-0.84 120.47-0.80L120.47-0.80Q122.77-0.84 122.77-3.19L122.77-3.19ZM132.52-4.27L132.52-4.27Q132.33-7.64 129.52-7.83L129.52-7.83Q126.66-7.69 126.52-4.27L126.52-4.27Q126.66-0.94 129.52-0.80L129.52-0.80Q132.33-0.98 132.52-4.27ZM133.69-4.27L133.69-4.27Q133.41 0 129.52 0.14L129.52 0.14Q125.58 0 125.30-4.27L125.30-4.27Q125.53-8.72 129.52-8.81L129.52-8.81Q133.41-8.67 133.69-4.27Z" transform="translate(-0.5609879032258065, 8.8125)"></path></g></g></g></g></g><defs v-gra="od"></defs></svg>